<?xml version="1.0" encoding="utf-8"?>
<!-- Generator: Adobe Illustrator 22.1.0, SVG Export Plug-In . SVG Version: 6.00 Build 0)  -->
<svg version="1.1" id="Layer_1" xmlns="http://www.w3.org/2000/svg" xmlns:xlink="http://www.w3.org/1999/xlink" x="0px" y="0px"
	 viewBox="0 0 268 266" style="enable-background:new 0 0 268 266;" xml:space="preserve">
<style type="text/css">
	.st0{fill:url(#SVGID_1_);}
	.st1{fill:url(#SVGID_2_);}
	.st2{fill:url(#SVGID_3_);}
	.st3{fill:url(#SVGID_4_);}
	.st4{fill:url(#SVGID_5_);}
	.st5{fill:url(#SVGID_6_);}
	.st6{fill:url(#SVGID_7_);}
	.st7{fill:url(#SVGID_8_);}
	.st8{fill:url(#SVGID_9_);}
	.st9{fill:url(#SVGID_10_);}
	.st10{fill:url(#SVGID_11_);}
	.st11{fill:url(#SVGID_12_);}
	.st12{fill:url(#SVGID_13_);}
	.st13{fill:url(#SVGID_14_);}
	.st14{fill:url(#SVGID_15_);}
	.st15{fill:url(#SVGID_16_);}
	.st16{fill:url(#SVGID_17_);}
</style>
<linearGradient id="SVGID_1_" gradientUnits="userSpaceOnUse" x1="72.2211" y1="134.0057" x2="193.9537" y2="134.0057">
	<stop  offset="0.1007" style="stop-color:#FFCF62"/>
	<stop  offset="0.7466" style="stop-color:#F58238"/>
</linearGradient>
<path class="st0" d="M133.6,73.1c34.2,0.1,60.4,26.3,60.3,60.6c0,34.6-26.7,61.1-61.4,61.1c-34.2,0-60.4-26.7-60.3-61.4
	C72.3,99.1,98.8,73.1,133.6,73.1z"/>
<linearGradient id="SVGID_2_" gradientUnits="userSpaceOnUse" x1="29.1418" y1="199.3901" x2="89.9818" y2="199.3901">
	<stop  offset="0.1007" style="stop-color:#FFCF62"/>
	<stop  offset="0.7466" style="stop-color:#F58238"/>
</linearGradient>
<path class="st1" d="M29.1,220.6c4.9-1.3,8.1-2,11.2-3.1c9.4-3.3,16.7-8.9,20.7-18.5c2.9-6.9,6.5-13.5,9.9-20.1
	c1.7-3.4,3.6-4.1,6.3-0.5c3.2,4.3,6.6,8.6,11.1,11.8c1.5,1,2.8,2.6,0.5,3.9c-11.7,6.7-19.7,17.9-31,25.1
	C49.1,224.6,40.1,223,29.1,220.6z"/>
<linearGradient id="SVGID_3_" gradientUnits="userSpaceOnUse" x1="176.3616" y1="68.4346" x2="236.6838" y2="68.4346">
	<stop  offset="0.1007" style="stop-color:#FFCF62"/>
	<stop  offset="0.7466" style="stop-color:#F58238"/>
</linearGradient>
<path class="st2" d="M236.7,47.6c-4.1,1-6.7,1.6-9.3,2.3c-10.5,2.9-18,9.3-22.4,19.2c-3,6.7-5.8,13.4-9.7,19.6
	c-1.9,3.1-3.6,4.6-6.2,0.6c-2.9-4.4-6.7-7.9-10.9-11.1c-2.4-1.9-2.5-3.6,0.2-5.3c9.3-5.8,16.8-13.6,24.9-20.8
	C212.7,43.7,223.7,43.7,236.7,47.6z"/>
<linearGradient id="SVGID_4_" gradientUnits="userSpaceOnUse" x1="176.1257" y1="206.8384" x2="221.4937" y2="206.8384">
	<stop  offset="0.1007" style="stop-color:#FFCF62"/>
	<stop  offset="0.7466" style="stop-color:#F58238"/>
</linearGradient>
<path class="st3" d="M219.6,236.1c-2.5-11.3-6.6-21.7-17.1-27.8c-5.5-3.2-11.8-5.2-17.5-8.1c-11.4-5.8-11.4-6-2.5-14.5
	c3-2.8,5.1-8.2,8.9-8.1c4,0.2,5,6.1,7.7,9.1c4.7,5.3,9.1,10.8,14.2,15.8C223.4,212.4,222.3,223.9,219.6,236.1z"/>
<linearGradient id="SVGID_5_" gradientUnits="userSpaceOnUse" x1="44.2044" y1="60.6745" x2="90.5122" y2="60.6745">
	<stop  offset="0.1007" style="stop-color:#FFCF62"/>
	<stop  offset="0.7466" style="stop-color:#F58238"/>
</linearGradient>
<path class="st4" d="M46.6,30.4c1.4,5.3,2,9.3,3.4,12.9c3.7,9.3,10.4,15.9,19.8,19.6c6.2,2.5,12.2,5.3,17.8,8.8
	c3.1,2,4.2,3.9,0.6,6.6c-4.3,3.2-8.6,6.6-11.6,11.2c-1.6,2.5-3.1,1.4-4.3-0.4c-6.6-10.1-15.6-18.4-23-27.7
	C42.4,52.5,43.6,42.1,46.6,30.4z"/>
<linearGradient id="SVGID_6_" gradientUnits="userSpaceOnUse" x1="120.5191" y1="235.7216" x2="144.5787" y2="235.7216">
	<stop  offset="0.1007" style="stop-color:#FFCF62"/>
	<stop  offset="0.7466" style="stop-color:#F58238"/>
</linearGradient>
<path class="st5" d="M122.7,265.5c9.4-13.4,10.2-26.8,3-41c-2.3-4.6-3.2-9.9-4.7-14.8c-0.9-3.1-0.3-4.6,3.5-4.3
	c5.4,0.4,10.8,0.4,16.2,0.2c3.5-0.1,4.6,0.9,3.6,4.3c-2.7,9.5-3,19.3-2.9,29.1c0.1,10.8-4.5,19.2-13.2,25.5
	C126.7,265.4,125.4,267.2,122.7,265.5z"/>
<linearGradient id="SVGID_7_" gradientUnits="userSpaceOnUse" x1="121.7653" y1="31.0913" x2="145.1011" y2="31.0913">
	<stop  offset="0.1007" style="stop-color:#FFCF62"/>
	<stop  offset="0.7466" style="stop-color:#F58238"/>
</linearGradient>
<path class="st6" d="M144.9-0.3c-2.3,4-3.8,6.6-5.3,9.2c-5.8,9.8-5.7,19.8-1.1,29.9c2.6,5.5,4.2,11.3,5.8,17.1
	c1.7,6.1,0.9,6.9-5.3,6.6c-4.4-0.2-8.7-0.3-13.1,0c-3.2,0.2-4.8-0.3-4-4c2.4-10.4,2.6-21,3-31.6C125.5,14.3,132.5,5.9,144.9-0.3z"/>
<linearGradient id="SVGID_8_" gradientUnits="userSpaceOnUse" x1="0.462" y1="133.8179" x2="61.5408" y2="133.8179">
	<stop  offset="0.1007" style="stop-color:#FFCF62"/>
	<stop  offset="0.7466" style="stop-color:#F58238"/>
</linearGradient>
<path class="st7" d="M0.5,124c2.2-0.5,3.4,1.3,4.9,2.2c10.9,6.5,22.1,8.1,33.8,1.9c5.6-3,11.7-4.1,17.8-5.7c3.3-0.9,4.6,0.3,4.5,3.7
	c-0.2,5.2-0.1,10.4,0.1,15.6c0.2,3.1-0.8,4.4-3.9,3.5c-10.1-2.7-20.5-2.8-30.9-3.1C14.3,141.8,3.4,134.1,0.5,124z"/>
<linearGradient id="SVGID_9_" gradientUnits="userSpaceOnUse" x1="204.5913" y1="134.2704" x2="268" y2="134.2704">
	<stop  offset="0.1007" style="stop-color:#FFCF62"/>
	<stop  offset="0.7466" style="stop-color:#F58238"/>
</linearGradient>
<path class="st8" d="M268,144.9c-4.3-2.2-7.9-4.2-11.5-5.8c-9.4-4.3-18.8-4.1-28.3,0.2c-6,2.7-12.2,5.1-18.8,6.4
	c-3.6,0.7-5-0.3-4.7-4.1c0.3-4.8,0.4-9.6,0.1-14.3c-0.3-4.3,1.3-4.9,5.1-4c9.1,2.2,18.4,2.6,27.8,2.6
	C251.6,125.8,260.3,131.3,268,144.9z"/>
<linearGradient id="SVGID_10_" gradientUnits="userSpaceOnUse" x1="94.22" y1="52.6845" x2="110.2589" y2="52.6845">
	<stop  offset="0.1007" style="stop-color:#FFCF62"/>
	<stop  offset="0.7466" style="stop-color:#F58238"/>
</linearGradient>
<path class="st9" d="M101.1,36.2c-2.4,10.6-0.6,19.4,7.9,26c1.9,1.5,1.4,3-0.6,4.4c-6,4.1-7.6,3.7-10.7-3.2
	C92.2,51.3,93.1,43.1,101.1,36.2z"/>
<linearGradient id="SVGID_11_" gradientUnits="userSpaceOnUse" x1="198.0651" y1="169.0502" x2="224.8889" y2="169.0502">
	<stop  offset="0.1007" style="stop-color:#FFCF62"/>
	<stop  offset="0.7466" style="stop-color:#F58238"/>
</linearGradient>
<path class="st10" d="M224.9,181c-5-9.8-13.5-13.2-23.6-13.7c-2.7-0.1-4-1.6-2.8-4.1c1.1-2.4,0.9-6.3,5-6
	C214.9,158.1,224.7,168.6,224.9,181z"/>
<linearGradient id="SVGID_12_" gradientUnits="userSpaceOnUse" x1="35.167" y1="165.1166" x2="68.8221" y2="165.1166">
	<stop  offset="0.1007" style="stop-color:#FFCF62"/>
	<stop  offset="0.7466" style="stop-color:#F58238"/>
</linearGradient>
<path class="st11" d="M35.2,167.2c3.8,0,6.5,0,9.1,0c6.6-0.1,12-2.7,16.4-7.7c1.1-1.3,3-4.3,4.5-0.7c1.1,2.8,6.1,5.7,2.2,9.1
	C59.1,175.1,44.9,174.9,35.2,167.2z"/>
<linearGradient id="SVGID_13_" gradientUnits="userSpaceOnUse" x1="156.1609" y1="55.7805" x2="178.4035" y2="55.7805">
	<stop  offset="0.1007" style="stop-color:#FFCF62"/>
	<stop  offset="0.7466" style="stop-color:#F58238"/>
</linearGradient>
<path class="st12" d="M178.4,42.1C169.7,47.9,166,56,166.3,66c0,1.6-0.1,4.1-2.4,3.2c-3-1.2-7.9-1.2-7.8-5.7
	C156.4,52.9,166.6,43,178.4,42.1z"/>
<linearGradient id="SVGID_14_" gradientUnits="userSpaceOnUse" x1="41.3746" y1="99.4906" x2="67.9408" y2="99.4906">
	<stop  offset="0.1007" style="stop-color:#FFCF62"/>
	<stop  offset="0.7466" style="stop-color:#F58238"/>
</linearGradient>
<path class="st13" d="M41.4,88.2c5.2,9,13.7,11.5,23.1,12.4c2.4,0.2,4.4,1.2,3,3.9c-1.3,2.4-0.6,7-5.3,6.3
	C50.5,108.9,42.6,100.8,41.4,88.2z"/>
<linearGradient id="SVGID_15_" gradientUnits="userSpaceOnUse" x1="197.8519" y1="103.3405" x2="230.4216" y2="103.3405">
	<stop  offset="0.1007" style="stop-color:#FFCF62"/>
	<stop  offset="0.7466" style="stop-color:#F58238"/>
</linearGradient>
<path class="st14" d="M230.4,101.4c-10.2-1.9-19,0-25.6,8.5c-1.2,1.6-3.1,2.1-3.9-0.2c-1-3-5.3-5.9-1.6-9.4
	C206.9,93.5,221.9,93.8,230.4,101.4z"/>
<linearGradient id="SVGID_16_" gradientUnits="userSpaceOnUse" x1="87.7894" y1="212.3797" x2="109.8207" y2="212.3797">
	<stop  offset="0.1007" style="stop-color:#FFCF62"/>
	<stop  offset="0.7466" style="stop-color:#F58238"/>
</linearGradient>
<path class="st15" d="M87.8,226c8.8-5.4,12-13.5,12-23.3c0-1.6-0.6-4.8,2.3-3.8c2.9,1,8,0.7,7.7,5.7C109.2,215,99.2,224.8,87.8,226z
	"/>
<linearGradient id="SVGID_17_" gradientUnits="userSpaceOnUse" x1="156.0724" y1="215.3283" x2="171.186" y2="215.3283">
	<stop  offset="0.1007" style="stop-color:#FFCF62"/>
	<stop  offset="0.7466" style="stop-color:#F58238"/>
</linearGradient>
<path class="st16" d="M165.1,232c2.1-11.3,0.3-19.8-7.5-26.4c-1.3-1.1-2.5-2.9-0.2-3.9c2.8-1.3,5.7-4.8,8.9-1.7
	C173.1,206.5,172.9,223.3,165.1,232z"/>
</svg>
